<svg width="185" height="93" viewBox="0 0 185 93" fill="none" xmlns="http://www.w3.org/2000/svg">
<path d="M184.754 10.8056C183.51 11.7297 182.216 12.6045 180.873 13.4177C178.126 15.0688 174.984 15.9313 171.78 15.9313H145.548C143.762 15.9313 142.099 16.88 141.199 18.4324L141.187 18.4571C140.546 19.5413 139.868 20.6995 139.141 21.907H148.764H152.473H174.121C174.7 21.907 174.947 22.6463 174.479 23.0036C173.234 23.9277 171.94 24.8025 170.597 25.6034C167.85 27.2667 164.696 28.1169 161.492 28.1169H159.816L159.804 28.1292H135.248C135.075 28.3838 134.903 28.6385 134.73 28.8931C134.221 29.657 133.695 30.4209 133.153 31.1848C133.137 31.2095 133.116 31.2341 133.092 31.2588C132.919 31.497 132.747 31.7393 132.574 31.9857C132.566 31.9939 132.558 32.0062 132.55 32.0227C132.377 32.2609 132.201 32.495 132.02 32.725C132.003 32.7496 131.991 32.7702 131.983 32.7866C131.802 33.0248 131.626 33.2589 131.453 33.4889C131.42 33.53 131.387 33.571 131.354 33.6121C131.174 33.8503 130.993 34.0885 130.812 34.3267H158.818C158.818 34.3267 158.814 34.3308 158.806 34.3391H163.673C164.264 34.3391 164.511 35.0783 164.03 35.4356C162.798 36.3597 161.504 37.2222 160.149 38.0354C157.414 39.6988 154.26 40.5489 151.056 40.5489H142.025V40.5366H125.428C123.715 42.3108 121.88 43.9988 119.908 45.5636H154.136C154.728 45.5636 154.974 46.3152 154.506 46.6602C153.261 47.5843 151.968 48.4591 150.612 49.2723C147.877 50.9233 144.723 51.7858 141.519 51.7858H120.278H115.583C112.207 51.7858 108.868 52.3772 105.64 53.3876C105.632 53.3958 105.624 53.3999 105.616 53.3999C105.147 53.5477 102.979 54.1638 102.843 54.2008L115.497 72.51C116.126 73.4341 115.916 74.6908 115.017 75.3562L93.738 92.2362C92.9987 92.7783 92.0007 92.7783 91.2738 92.2362L69.9951 75.3562C69.0957 74.6908 68.8739 73.4341 69.5146 72.51L82.1684 54.2008C82.0206 54.1638 79.3715 53.3999 79.3715 53.3876C76.1434 52.3772 72.8043 51.7858 69.416 51.7858H64.7217H49.3449C46.1414 51.7858 42.9995 50.9233 40.2519 49.2723C38.761 48.3729 37.3317 47.3995 35.9641 46.3522C35.6314 46.1058 35.8039 45.5636 36.2228 45.5636H65.1036C63.1322 43.9988 61.2964 42.3108 59.5714 40.5366L33.9557 40.5489C30.7522 40.5489 27.598 39.6988 24.8504 38.0354C23.5074 37.2222 22.2137 36.3474 20.9692 35.4233C20.501 35.0783 20.7475 34.3391 21.3266 34.3391C23.2979 34.3267 26.1934 34.3267 26.1934 34.3267H54.1994C54.0105 34.0885 53.8257 33.8503 53.645 33.6121C53.6121 33.571 53.5833 33.53 53.5587 33.4889C53.378 33.2589 53.2014 33.0248 53.0289 32.7866C53.0125 32.7702 52.996 32.7496 52.9796 32.725C52.8071 32.495 52.6346 32.2609 52.4621 32.0227C52.4539 32.0062 52.4457 31.9939 52.4375 31.9857C52.2568 31.7393 52.0802 31.497 51.9077 31.2588C51.8912 31.2341 51.8748 31.2095 51.8584 31.1848C51.3162 30.4209 50.7906 29.657 50.2813 28.8931C50.2813 28.8931 50.2772 28.8931 50.269 28.8931C50.0965 28.6385 49.9281 28.3838 49.7638 28.1292L23.5074 28.1169C20.3039 28.1169 17.162 27.2667 14.4144 25.6034C13.0714 24.8025 11.7777 23.9277 10.5332 23.0036C10.065 22.6463 10.3114 21.907 10.8905 21.907H45.8703C45.1433 20.6995 44.4657 19.5413 43.825 18.4571L43.8127 18.4324C42.9009 16.88 41.2499 15.9313 39.4633 15.9313H13.2316C10.0281 15.9313 6.87384 15.0688 4.13855 13.4177C2.78322 12.6045 1.4895 11.7297 0.245062 10.8056C-0.223142 10.4607 0.0232813 9.72139 0.614697 9.72139H67.3707H67.3954C70.2908 9.72139 72.9029 11.3724 74.1966 13.9475C74.7634 15.0811 75.4411 16.1407 76.1927 17.1387C77.1907 18.4448 78.3242 19.6153 79.5933 20.6503C80.3161 21.2335 81.0759 21.7674 81.8727 22.252C82.1109 22.3999 82.3573 22.5436 82.612 22.6832L85.7292 13.2329C85.7292 13.2329 87.4912 8.40303 84.8914 6.89985C82.4272 5.48291 80.9117 7.5159 80.3695 8.46463C80.2833 8.60016 80.0738 8.5632 80.0492 8.40302C79.889 7.33108 79.6303 4.76828 80.4558 3.10492C81.6879 0.603731 82.8584 0 85.4951 0C85.4951 0 88.3413 0 91.2368 0C91.6311 0 92.0212 0 92.4073 0H100.946C101.488 0 101.759 0.665342 101.377 1.0473C100.589 1.78657 99.2702 2.75993 97.3111 3.25278C98.0997 4.46025 98.4939 5.53219 98.4939 5.53219L102.942 22.3752C103.008 22.3341 103.073 22.2931 103.139 22.252C103.936 21.7674 104.696 21.2335 105.418 20.6503C106.404 19.8494 107.316 18.9623 108.129 17.9889C109.189 16.7444 110.1 15.3768 110.827 13.8983C112.121 11.3231 114.758 9.72139 117.641 9.72139H184.397C184.976 9.72139 185.223 10.4607 184.754 10.8056Z" fill="white"/>
<path d="M88.9944 3.74563C87.368 3.74563 87.4665 2.23013 87.4665 2.23013H91.4093C91.4093 2.23013 89.7213 3.74563 88.9944 3.74563Z" fill="white"/>
</svg>
